<svg width="72" height="74" viewBox="0 0 72 74" fill="none" xmlns="http://www.w3.org/2000/svg">
<path d="M29.7404 1.67736C27.9217 2.0969 24.8726 3.0933 23.0539 3.87993C19.4698 5.4532 13.7461 9.17659 13.3182 10.2779C13.1577 10.645 14.0671 10.2254 15.2974 9.38636C25.2471 2.72621 37.3364 0.471192 47.2326 3.51284C52.9028 5.24343 57.4497 7.86554 61.8896 12.0609C63.9758 14.0013 65.848 15.627 66.062 15.627C68.0412 15.627 61.0872 8.86194 56.2728 6.03006C48.8373 1.7298 37.7643 -0.105672 29.7404 1.67736Z" fill="white"/>
<path d="M30.3838 4.404C25.5695 5.45284 19.7923 8.17984 16.7432 10.9593C14.9244 12.585 14.7639 12.8472 15.9408 12.1654C22.1459 8.54693 23.8042 7.70786 26.9068 6.65901C31.6676 5.03331 40.28 4.71865 45.0943 5.92482C49.7482 7.07855 55.3114 10.0153 58.7349 13.1094C61.3561 15.4693 62.7469 16.2035 62.7469 15.2071C62.7469 14.6827 59.3234 11.5361 56.7022 9.64822C51.7274 6.08215 43.2756 3.51248 36.9099 3.61737C35.3586 3.61737 32.47 3.98446 30.3838 4.404Z" fill="white"/>
<path d="M8.0774 15.1038C2.83511 20.9773 0 28.8961 0 37.654C0 48.8241 4.11894 57.6344 12.7848 64.9239C19.3109 70.3779 26.9603 73 36.2681 73C45.5758 73 53.1717 70.3779 60.1793 64.6617C63.1214 62.2493 68.0962 56.6905 68.0962 55.7465C68.0962 54.855 66.8659 55.8514 64.6727 58.6308C57.0767 68.0704 43.0081 73.6817 31.7212 71.7938C22.8949 70.273 16.9572 67.2838 11.1265 61.5152C-1.01636 49.5583 -2.13971 30.8889 8.50534 16.31C9.84266 14.4745 10.859 12.7964 10.6985 12.6915C10.5916 12.5341 9.36122 13.6354 8.0774 15.1038Z" fill="white"/>
<path d="M10.7534 16.5722C8.88111 18.565 6.42045 22.3408 5.40408 24.8056C3.37136 29.6303 3.1039 31.1511 3.15739 37.9162C3.15739 44.2617 3.26438 45.0483 4.86916 49.1912C8.77413 59.3126 17.6004 66.9691 28.192 69.3815C32.5249 70.3779 40.6558 70.3779 44.6677 69.3815C48.9471 68.2802 53.2801 66.3398 55.9547 64.347C60.983 60.5712 65.6369 55.4843 64.0856 55.4843C63.9251 55.4843 62.3203 57.0051 60.5551 58.8406C47.6098 72.4231 25.4638 72.4756 12.6791 58.9455C8.07872 54.0684 5.77853 49.401 4.65519 42.5835C3.7993 37.6015 3.7993 36.9722 4.65519 32.2524C5.67155 26.9557 7.32982 22.9177 10.5394 18.3028C12.7326 15.1562 12.8396 14.3696 10.7534 16.5722Z" fill="white"/>
<path d="M19.4166 22.8652C17.0094 24.0189 15.8326 26.1166 14.9232 30.8889C14.2813 34.1927 14.2813 34.9794 14.9232 36.1855C15.3511 36.9722 15.993 37.7588 16.314 38.021C16.6884 38.2308 26.9056 38.5454 38.9414 38.7027L60.8734 38.965L61.0339 40.6431C61.1944 41.9542 60.9269 42.4786 59.857 43.1603C58.6267 43.947 56.4335 43.9994 35.6249 43.6848C9.89488 43.2128 11.6601 42.9506 11.0717 47.2508L10.6973 49.6632L35.9458 49.7156C60.285 49.7156 61.1944 49.7156 63.2806 48.6668C65.6878 47.4606 66.8646 45.6251 67.881 41.3249C68.8973 37.1295 68.7903 36.1855 67.0786 34.4549L65.5273 32.9341H44.5581C31.1315 32.9341 23.268 32.7243 22.5726 32.4097C21.3423 31.7279 21.2353 29.6302 22.4122 28.529C23.1611 27.7948 26.1032 27.6899 46.9653 27.6899C60.7664 27.6899 70.8231 27.4801 70.9835 27.2179C71.1975 26.9557 71.465 25.6446 71.6254 24.3336L71.9999 21.9212H46.6444C23.589 21.9212 21.1283 22.0261 19.4166 22.8652Z" fill="white"/>
</svg>
